<?xml version="1.0" encoding="utf-8"?>
<!-- Generator: Adobe Illustrator 25.0.1, SVG Export Plug-In . SVG Version: 6.00 Build 0)  -->
<svg version="1.1" id="图层_1" xmlns="http://www.w3.org/2000/svg" xmlns:xlink="http://www.w3.org/1999/xlink" x="0px" y="0px"
	 viewBox="0 0 800 800" style="enable-background:new 0 0 800 800;" xml:space="preserve">
<style type="text/css">
	.st0{fill-rule:evenodd;clip-rule:evenodd;}
</style>
<g id="Page-1">
	<g id="Gloria-Jean_x27_s-Coffees_x5F_light" transform="translate(-331.000000, -160.000000)">
		<path id="Combined-Shape" class="st0" d="M988.7,715.7c2.7-4.1,6.9-5.7,10.9-4.1c5.5,2.1,7.4,8.2,4.1,13.6
			c-5.2,8.5-10.7,16.9-16.6,24.9c-16,21.5-34.3,40.8-55.1,57.7c-42.2,34.1-89.9,56.4-143.2,66.6c-19.6,3.7-39.3,5.4-62.8,5.6
			c-68-0.7-132.6-22.4-190-65.3c-2.3-1.7-4.6-3.5-6.7-5.4c-4.1-3.6-4.8-8.9-1.7-12.7c3.4-4.1,8.6-4.5,13.2-0.9
			c21.9,17.5,45.8,31.8,71.6,42.7c24.8,10.4,50.5,17.4,77.2,21c24.2,3.3,48.4,3.7,72.6,1c50.7-5.6,97.1-22.8,139.1-51.7
			c31-21.3,57-47.5,78.3-78.5c1.3-1.9,2.6-3.8,3.8-5.8l3.7-5.9L988.7,715.7z M629.1,592.8l9,0c9.8,0.1,14.5,4.9,14.4,14.8
			c-0.1,6.1-1.8,11.8-4,17.4c-9.3,23.4-19,46.5-31.5,68.4c-11.9,20.8-25.4,40.2-43.9,55.7c-11.4,9.5-24.1,16.8-39,18.6
			c-20.9,2.4-38.9-3.3-51.2-21.5c-7.5-11-9.3-23.4-6.9-36.4c6-32.8,32.4-58,65.4-62.2c13.5-1.7,26.7,0.5,39.1,6.3
			c3.2,1.5,5.8,3.7,6.4,7.4c1,6.1-4.8,11.1-11.1,9.4c-5.5-1.5-10.8-3.8-16.5-4.9c-32.9-6.2-61.9,19.7-65.9,47.4
			c-3.6,25.3,17.3,43,42.9,36.4c12.8-3.3,23-10.7,32.3-19.7c16.1-15.6,27.9-34.3,38.2-54c10.1-19.3,18.2-39.4,25.9-59.7
			c0.1-0.4,0.3-0.8,0.4-1.2c1.4-4.1,1.2-4.5-3.1-4.5c-15.2,0-30.5,0.1-45.7,0.1c-1.7,0-3.5,0-5.2-0.2c-4.3-0.7-7-3.5-7.3-7.6
			c-0.3-4.6,1.8-7.8,6.1-9.2c1.7-0.5,3.4-0.7,5.2-0.7c9.4,0,18.7,0,28.1,0v-0.1l9,0L629.1,592.8z M735.6,602.1
			c9.4,7.4,11.1,18.6,4.4,28.6c-3.5,5.3-8.2,9.3-13.9,12c-13.8,6.7-28,8.8-42.6,2.8c-2.3-1-3.1,0.1-3.1,2.1c-0.2,7.6,3,16,12.3,19
			c8.9,3,17.5,1.9,25.9-1.4c14.2-5.5,25.4-15.1,35.6-26c1.2-1.3,1.7-3.1,2.3-4.7c5.1-12.9,12.5-23.9,24.6-31.2
			c12.2-7.4,25.3-9.6,39-4.3c5.2,2,9.4,5.5,12.8,9.9c1.1,1.5,2.1,1.9,3.9,0.8c3.5-2.1,6.7-1.1,9.7,1.3c3,2.5,3.2,5.8,2,9
			c-2.5,6.5-5.3,12.9-8,19.4c-2.3,5.6-4.7,11.2-6.9,16.8c-0.6,1.5-1,3.2-1.2,4.8c-0.3,3.9,1.9,5.4,5.4,3.6c3.6-1.9,6.5-4.7,9.2-7.6
			c7.8-8.5,13.9-18.1,18.9-28.5c3.8-7.8,6.9-15.8,10.1-23.9c0.7-1.7,1.6-3.3,2.8-4.7c2.9-3.2,6.3-3.9,10-2.1
			c3.4,1.7,5.3,5.5,4.3,9.4c-0.7,2.8-1.9,5.6-2.8,8.4l0.7,0.5c2.1-2,4.1-4,6.2-5.9c6.8-6.3,14.2-11.6,23.5-13.5
			c13.2-2.8,25.3,6.5,25.9,20c0.3,6.6-0.6,13-3.1,19.1c-5.5,13.8-11.2,27.5-16.9,41.1c-1.8,4.2-5.2,6.3-8.9,5.7
			c-6.1-1-8.9-5.8-6.5-12c3.6-9.1,7.5-18.1,11.1-27.1c2.6-6.5,6-12.7,7-19.7c0.3-2.2,0.5-4.3,0-6.4c-0.7-3.2-2.7-4.5-5.9-3.8
			c-4,0.8-7.5,2.8-10.8,5.1C896,629.8,883.6,645,873,661.7c-3.3,5.1-6.1,10.5-8.8,15.9c-2.1,4.1-5.7,6.3-9.4,5.6
			c-3.9-0.7-6.4-3.5-7-8.2c-0.2-2-0.9-2.1-2.2-0.9c-2.9,2.6-6.1,4.9-9.8,6.3c-8.4,3.3-15.7,0-18.8-8.5l-0.4-1.1
			c-0.9-2.3-1.1-2.1-3.4,0.1c-6.6,6.3-13.8,11.4-22.8,13.5c-14,3.4-27.1-3.1-33.2-16.1c-0.9-1.9-1.6-3.8-2.3-5.7
			c-1.2-3.3-1.3-3.4-3.9-0.9c-5.4,5.1-11.1,9.8-17.5,13.7c-15.3,9.3-31.4,12.4-48.7,6.1c-12.7-4.6-21.5-16.7-21.7-30.2
			c-0.5-25.2,20.1-51.1,44.6-55.6C717.9,593.9,727.3,595.6,735.6,602.1z M1026.1,596.1c6.9,0.8,10.2,7.2,6.7,13.1
			c-1.7,2.9-4.5,3.6-7.6,3.8c-5.1,0.2-6.8,2.9-4.4,7.5c1,1.9,2.1,3.8,3.2,5.6l2.3,3.7l1.1,1.8c4.1,6.9,7.6,13.9,7.4,22.2
			c0,13.2-8.5,24.2-21.9,28.6c-13,4.2-26.7-0.2-34.6-11.1c-5.9-8.2-7.6-17.2-4.7-26.9c1-3.5,3.4-5.9,7-6.6c3.2-0.6,5.8,0.7,7.9,3.1
			c2.2,2.5,2,5.5,1.3,8.5c-1.6,7.3,1.6,14.1,7.9,16.5c7,2.7,14.9,0,18.5-6.3c2.2-3.8,1.9-7.7,0.4-11.6c-1.6-4.1-4-7.7-6.3-11.3
			c-2.6-4.3-5.2-8.7-6.7-13.5C999.2,608.7,1011.1,594.3,1026.1,596.1z M805.2,613.1c-18.2,1.5-34.5,19.2-34.6,37.9
			c0.2,3.2,0.6,6.8,2,10.2c2.4,5.7,6.8,8.3,13,7.5c4.2-0.5,8-2.1,11.5-4.3c9.8-6.1,16.9-14.8,23.5-24.1c2.7-3.9,3.6-7.6,2.7-12.3
			C821.3,618.2,814.5,612.3,805.2,613.1z M849.6,262.8c48.3,20.1,89.4,50,122.9,90.3c33.8,40.6,56.7,86.7,69.2,137.9
			c5.4,22,8.4,44.3,8,67c-0.1,7.2-5.1,11.3-11.4,9.4c-3.1-1-5.1-3-5.8-6.2c-0.3-1.5-0.5-3.1-0.5-4.6c-0.3-43.6-10.3-85-28.5-124.5
			c-15.4-33.3-36-63.1-62.3-88.7c-41.6-40.4-90.7-67.1-147.4-79.5c-34.7-7.6-69.8-8.1-104.9-3.1c-42,6-80.8,20.7-116.1,44.2
			c-24.9,16.5-46.8,36.3-64.2,60.8c-11.1,15.5-20,32.2-23.5,51.2c-1.8,10.2-1.6,20.3,2.4,30.1c0.4,1,0.6,2.5,1.9,2.6
			c1.3,0.1,1.6-1.4,2.2-2.3c21.6-32.8,48.9-59.3,84.5-76.6c13.8-6.7,28.4-10.6,43.9-9.3c15.8,1.3,29,7.4,36.1,22.5
			c5.6,11.8,4.6,24.1,0,36.1c-6.9,17.9-18.8,32-34.3,43.1c-19.6,14.1-41.5,22-65.4,24.6c-20,2.2-39.6,0.9-58.6-6.6
			c-1.7-0.7-3-0.7-3.5,1.4c-1.8,7-2.9,14.1-1.4,21.4c2.6,12.4,11.5,20.4,24.7,21.2c21.9,1.4,40.4-6.6,56.5-21
			c1.8-1.6,3.3-3.4,5.1-4.9c2.9-2.4,6.4-2.6,9.7-0.5c3.2,1.9,4.8,5.1,4,8.6c-1.1,5.2-3.7,9.8-5.8,14.6
			c-5.1,11.8-10.8,23.4-16.9,34.7c-2.5,4.6-2.6,4.9,2,4.9l0.9,0c128.2,0,256.4,0,384.6,0c4.4,0,8.8-0.3,13.2,0.5
			c17.3,2.9,24.9,15.2,19.4,32c-2.3,6.9-5.8,13.2-11.1,18.3c-4.3,4.1-9.7,4.5-13.3,1c-3.4-3.3-3.7-8.2-0.5-12.3
			c1.8-2.3,3.6-4.5,5.4-6.8c0.3-0.4,0.6-0.8,0.8-1.3c1.8-3.3,3.7-6.9,1.8-10.5c-1.6-3-4.6-3.3-7.5-3.3l-0.9,0c-0.3,0-0.6,0-0.9,0
			c-39.5-0.1-79,0-118.5,0c-27.7,0-55.4,0-83,0c-66.9,0-133.8,0-200.6-0.1c-3.6,0-5.7,1.1-7.7,4.2c-12.1,18.5-26,35.6-43.4,49.4
			c-13.3,10.5-27.9,18.4-45,20.4c-14,1.6-27.5-0.5-39-9.2c-14.7-11.2-18.4-29.2-10.2-46.6c7.3-15.5,20.1-24.3,35.9-29.4
			c13-4.2,26.5-5.8,40.1-6c16.8-0.3,33.5-0.2,50.3,0c3,0,4.9-0.8,6.4-3.6c3.7-6.8,7.4-13.5,10.8-20.5c0.4-0.8,1.3-1.7,0.6-2.5
			c-0.8-0.8-1.7,0.1-2.5,0.4c-13.7,5.7-27.7,9-42.7,7.3c-21.7-2.5-40.1-17.2-41.2-42.4c-0.4-9.8,1.5-19.2,4.9-28.4
			c0.6-1.7,0.7-3.1-0.5-4.6c-13.1-17.2-14.8-36.6-10.6-56.9c4.3-20.8,14.1-39.1,26.4-56c24.4-33.4,55.7-58.9,91.9-78.6
			c33.6-18.3,69.5-29.3,107.4-33.5C747.4,236.3,799.5,242,849.6,262.8z M532.9,579c-7.2,0-14.4,0-21.6,0c-9.2,0.1-18.5-0.2-27.7,0.7
			c-11.4,1.1-22.7,2.8-33.1,7.8c-9.6,4.6-17,11.3-19.8,21.9c-2.3,8.6,1.2,17.8,8.4,21.7c7.1,3.9,14.8,5.4,22.9,4.7
			c10.8-0.9,20.5-5,29.5-10.9c17.4-11.4,30.8-26.7,42.8-43.5C535.5,579.7,535.1,579,532.9,579z M718.3,612.4
			c-12.7,0.5-22.4,6.6-30.2,16.2c-1.3,1.7-0.6,2.6,1.2,3.1c2.8,0.8,5.6,1.1,8.6,1.4c1.7-0.2,3.6-0.3,5.4-0.6
			c7.6-1.1,14.6-3.6,20.5-8.6c2.2-1.9,4.1-4.4,2.9-7.6c-1.2-3.1-4.1-3.7-7.1-4C719.1,612.4,718.7,612.4,718.3,612.4z M980.1,467.6
			c1,1.2,1.8,2,3.6,1.3c3.6-1.3,6.9-0.4,9.6,2.3c2.7,2.7,2.3,6.1,1.4,9.3c-0.6,2.2-1.6,4.2-2.5,6.3c-4.1,9.9-8.1,19.8-12.2,29.7
			c-2,5-2.3,9.4,2.2,13.4c2.8,2.5,2.8,6.1,1.1,9.4c-1.7,3.2-4.5,4.8-8.1,4.4c-6.2-0.7-10-4.4-12.1-10c-1.5-4-1.4-4-4.6-1.2
			c-12.4,11.5-29.9,14.5-44,7.6c-3-1.5-5.7-3.4-7.8-5.9c-1.8-2.1-3.1-1.5-4.7,0.1c-4.9,4.6-10.4,8-17.2,8.9
			c-14.4,1.7-26.1-9.1-25.9-25c-0.3-4.8,1.5-10.1,3.6-15.3c5.7-13.8,11.3-27.6,17-41.4c2.9-6.9,7.9-9.1,13.3-5.9
			c3.2,1.9,4.6,4.6,4.1,8.3c-0.3,1.8-0.9,3.6-1.6,5.3c-5.6,13.5-11.1,27-16.7,40.5c-1.2,3-2.2,6-2,9.3c0.2,4.8,3.5,7.9,8.3,7.5
			c5-0.4,8.9-3,12.5-6.2c0.8-0.7,0.9-1.6,0.7-2.5c-2.8-14.1,2.2-26.4,9.6-37.9c8.3-13.1,19.8-22,35.2-24.9
			C957.4,452.3,970.2,455.7,980.1,467.6z M702.7,364.1c3.3,0.5,5.5,2.5,6.8,5.6c1.7,4.3,0.9,8.5-0.8,12.6
			c-6.7,16.2-13.3,32.3-20,48.5c-10.8,26.2-21.6,52.3-32.4,78.5c-1.1,2.7-1.9,5.4-2.3,8.3c-0.7,5.9,3.4,10.1,9.3,9.1
			c5.5-0.9,9.8-4,13.4-8.2c0.9-1.1,0.8-2.3,0.7-3.5c-2-22.6,15.9-56.3,48.9-60.7c13.3-1.8,25.2,1.6,33.7,13c4.1,5.5,5.6,12,5.5,18.9
			c0,3.3,0.4,3.5,3.3,2.1c7.3-3.5,12.7-9.4,17.9-15.4c4-4.6,7-9.9,10.4-14.9c2.9-4.4,7.2-5.2,11.5-2.6c3.7,2.2,4.9,6.4,3.2,11.1
			c-0.9,2.4-1.9,4.7-2.8,7.1l0.6,0.4c2.7-2.6,5.3-5.3,8.1-7.8c3.9-3.7,8.1-7,13-9.2c6.4-2.9,12.9-3.6,19.3-0.2
			c7.1,3.6,10.5,11.3,9,20.3c-1,6.3-3.3,12.1-6.7,17.5c-2.8,4.3-6.1,5.4-10.2,3.6c-4.2-1.8-6-5.5-4.8-10.1c0.7-2.7,1.9-5.2,2.9-7.8
			c0.5-1.3,1-2.5,1.3-3.8c0.6-3.4-1.2-5-4.4-3.7c-4.9,2-8.7,5.4-12.5,8.9c-16.7,15.7-30.1,34-40.8,54.3c-0.7,1.3-1.3,2.6-2.1,3.8
			c-2.3,3.8-6.2,5.1-10.4,3.6c-3.9-1.3-5.9-4.7-5.5-9c0.2-2.2,1.1-4.2,1.9-6.2c3.4-8.4,6.9-16.7,10.3-25.1c0.4-0.9,1.4-1.9,0.4-2.8
			c-0.8-0.7-1.7,0.3-2.5,0.6c-3.9,1.7-7.9,3.1-12.1,3.5c-2.2,0.2-2.8,1.7-3.6,3.3c-5.6,12.1-13.8,21.8-25,29.1
			c-14.4,9.3-33,9.4-46,0.1c-1.1-0.8-2.1-1.7-3.1-2.6c-3.1-3-3-3-6.3,0.1c-2.8,2.6-5.7,5-9.2,6.7c-8.8,4.4-17.4,3.8-25.3-1.9
			c-7.9-5.7-10.2-13.8-9.1-23.2c0.6-4.8,2.1-9.4,4-13.9c17.3-43.1,34.6-86.1,51.9-129.2c0.7-1.8,1.5-3.6,2.6-5.2
			C696.9,364.9,699.4,363.5,702.7,364.1z M951.5,471.8c-18.9,1.8-35,17.9-36.4,36.9c-0.7,8.8,3.2,17.8,14.6,17.6
			c5.6-0.1,10.7-2,15.4-4.8c8.3-4.9,14.4-12,20.5-19.4c5.1-6.2,5.1-12.4,2.7-19.3C965.7,475.6,958.9,471.1,951.5,471.8z
			 M695.1,509.6c-0.1,10.6,6.6,17.3,16.7,16.5c4.6-0.4,8.9-1.7,12.8-4c8.2-4.8,14.2-11.7,18.8-20c1.2-2.2,1.2-3.7-0.6-5.7
			c-5.1-5.7-7.2-12.4-5.3-20c1.1-4.3,0.7-4.7-3.7-4.8C714.7,471.1,695.3,490.2,695.1,509.6z M612.5,378.4
			c-10.2,0.8-19.7,4.2-28.8,8.6c-19.1,9.3-35.7,22.1-50.8,36.8c-10.9,10.7-20.6,22.4-28.6,35.5c-2.8,4.7-2.8,4.7,2.2,6.5
			c10.5,3.8,21.4,5.1,33.4,5.4c2.7-0.2,6.4-0.4,10.1-0.6c1.5-0.1,3.1-0.3,4.6-0.6c23.9-3.3,45.6-11.7,64.1-27.4
			c9.7-8.3,17.4-18.2,21.4-30.4c2.4-7.4,2.5-14.8-1.3-21.9C633.7,380.7,622.7,377.7,612.5,378.4z M907.1,418.3
			c3.2,1.5,5.5,3.6,5.2,9.1c-0.3,2.7-1.6,6.6-4.5,9.9c-2.8,3.2-6.8,3.7-10.9,1.4c-3.7-2-5-5-4-9.3c0.8-3.6,2.1-7.1,4.8-9.8
			C900.2,417.2,903.7,416.7,907.1,418.3z"/>
	</g>
</g>
</svg>
